<svg width="700" height="700" viewBox="0 0 700 700" fill="none" xmlns="http://www.w3.org/2000/svg">
<circle cx="350" cy="350" r="345" fill="#FFFF00" stroke="black" stroke-width="10"/>
<ellipse cx="250.523" cy="224.448" rx="50" ry="100" fill="black"/>
<ellipse cx="442.085" cy="224.448" rx="50" ry="100" fill="black"/>
<ellipse cx="442.085" cy="228.989" rx="50" ry="7.77203" fill="black"/>
<ellipse cx="250.523" cy="228.989" rx="50" ry="7.77203" fill="black"/>
<circle cx="250.523" cy="228.989" r="50" fill="white"/>
<circle cx="442.085" cy="228.989" r="50" fill="white"/>
<ellipse cx="250.523" cy="230.602" rx="10.0503" ry="11.8102" fill="#FF0000"/>
<ellipse cx="442.085" cy="228.989" rx="10.0503" ry="11.8102" fill="#FF0000"/>
<path d="M650 493.57C650 548.798 515.685 593.57 350 593.57C184.315 593.57 50 548.798 50 493.57C50 438.342 184.315 393.57 350 393.57C515.685 393.57 650 438.342 650 493.57Z" fill="black"/>
<path d="M650 368.57C650 382.377 515.685 393.57 350 393.57C184.315 393.57 50 382.377 50 368.57C50 354.763 184.315 343.57 350 343.57C515.685 343.57 650 354.763 650 368.57Z" fill="black"/>
<path d="M178.813 431.724L168.535 570.324L178.813 575.556L189.966 571.632L178.813 431.724Z" fill="#FF0000"/>
<path d="M178.813 431.724L168.535 570.324L178.813 575.556L189.966 571.632L178.813 431.724Z" fill="#FF0000"/>
<path d="M178.813 431.724L168.535 570.324L178.813 575.556L189.966 571.632L178.813 431.724Z" fill="#FF0000"/>
<path d="M178.813 431.724L168.535 570.324L178.813 575.556L189.966 571.632L178.813 431.724Z" fill="#FF0000"/>
<path d="M250.652 453.113L236.266 582.402L246.544 587.656L257.697 583.716L250.652 453.113Z" fill="#FF0000"/>
<path d="M250.652 453.113L236.266 582.402L246.544 587.656L257.697 583.716L250.652 453.113Z" fill="#FF0000"/>
<path d="M250.652 453.113L236.266 582.402L246.544 587.656L257.697 583.716L250.652 453.113Z" fill="#FF0000"/>
<path d="M250.652 453.113L236.266 582.402L246.544 587.656L257.697 583.716L250.652 453.113Z" fill="#FF0000"/>
<path d="M335.325 403.773L324.369 587.796L335.325 593.57L345.8 589.092L335.325 403.773Z" fill="#FF0000"/>
<path d="M335.325 403.773L324.369 587.796L335.325 593.57L345.8 589.092L335.325 403.773Z" fill="#FF0000"/>
<path d="M335.325 403.773L324.369 587.796L335.325 593.57L345.8 589.092L335.325 403.773Z" fill="#FF0000"/>
<path d="M335.325 403.773L324.369 587.796L335.325 593.57L345.8 589.092L335.325 403.773Z" fill="#FF0000"/>
<path d="M425.737 421.183L430.257 582.265L445.375 586.097L454.955 575.903L425.737 421.183Z" fill="#FF0000"/>
<path d="M425.737 421.183L430.257 582.265L445.375 586.097L454.955 575.903L425.737 421.183Z" fill="#FF0000"/>
<path d="M425.737 421.183L430.257 582.265L445.375 586.097L454.955 575.903L425.737 421.183Z" fill="#FF0000"/>
<path d="M425.737 421.183L430.257 582.265L445.375 586.097L454.955 575.903L425.737 421.183Z" fill="#FF0000"/>
<path d="M510.442 466.314L518.568 574.455L530.08 568.631H541.345L510.442 466.314Z" fill="#FF0000"/>
<path d="M510.442 466.314L518.568 574.455L530.08 568.631H541.345L510.442 466.314Z" fill="#FF0000"/>
<path d="M510.442 466.314L518.568 574.455L530.08 568.631H541.345L510.442 466.314Z" fill="#FF0000"/>
<path d="M510.442 466.314L518.568 574.455L530.08 568.631H541.345L510.442 466.314Z" fill="#FF0000"/>
<path d="M380.152 586.097L390.43 403.417L380.152 393.591L368.999 400.96L380.152 586.097Z" fill="#FF0000"/>
<path d="M380.152 586.097L390.43 403.417L380.152 393.591L368.999 400.96L380.152 586.097Z" fill="#FF0000"/>
<path d="M380.152 586.097L390.43 403.417L380.152 393.591L368.999 400.96L380.152 586.097Z" fill="#FF0000"/>
<path d="M380.152 586.097L390.43 403.417L380.152 393.591L368.999 400.96L380.152 586.097Z" fill="#FF0000"/>
<path d="M295.045 586.097L311.727 403.283L301.449 393.57L290.296 400.855L295.045 586.097Z" fill="#FF0000"/>
<path d="M295.045 586.097L311.727 403.283L301.449 393.57L290.296 400.855L295.045 586.097Z" fill="#FF0000"/>
<path d="M295.045 586.097L311.727 403.283L301.449 393.57L290.296 400.855L295.045 586.097Z" fill="#FF0000"/>
<path d="M295.045 586.097L311.727 403.283L301.449 393.57L290.296 400.855L295.045 586.097Z" fill="#FF0000"/>
<path d="M219.461 569.303L229.74 408.7L219.461 399.799L208.309 406.475L219.461 569.303Z" fill="#FF0000"/>
<path d="M219.461 569.303L229.74 408.7L219.461 399.799L208.309 406.475L219.461 569.303Z" fill="#FF0000"/>
<path d="M219.461 569.303L229.74 408.7L219.461 399.799L208.309 406.475L219.461 569.303Z" fill="#FF0000"/>
<path d="M219.461 569.303L229.74 408.7L219.461 399.799L208.309 406.475L219.461 569.303Z" fill="#FF0000"/>
<path d="M482.912 552.742V405.685L472.633 400.633L461.48 404.422L482.912 552.742Z" fill="#FF0000"/>
<path d="M482.912 552.742V405.685L472.633 400.633L461.48 404.422L482.912 552.742Z" fill="#FF0000"/>
<path d="M482.912 552.742V405.685L472.633 400.633L461.48 404.422L482.912 552.742Z" fill="#FF0000"/>
<path d="M482.912 552.742V405.685L472.633 400.633L461.48 404.422L482.912 552.742Z" fill="#FF0000"/>
<path d="M564.545 527.697L585.976 430.73L575.698 425.678L564.545 429.467V527.697Z" fill="#FF0000"/>
<path d="M564.545 527.697L585.976 430.73L575.698 425.678L564.545 429.467V527.697Z" fill="#FF0000"/>
<path d="M564.545 527.697L585.976 430.73L575.698 425.678L564.545 429.467V527.697Z" fill="#FF0000"/>
<path d="M564.545 527.697L585.976 430.73L575.698 425.678L564.545 429.467V527.697Z" fill="#FF0000"/>
<path d="M146.528 539.129L150.692 420.548L140.414 417.515L129.261 419.79L146.528 539.129Z" fill="#FF0000"/>
<path d="M146.528 539.129L150.692 420.548L140.414 417.515L129.261 419.79L146.528 539.129Z" fill="#FF0000"/>
<path d="M146.528 539.129L150.692 420.548L140.414 417.515L129.261 419.79L146.528 539.129Z" fill="#FF0000"/>
<path d="M146.528 539.129L150.692 420.548L140.414 417.515L129.261 419.79L146.528 539.129Z" fill="#FF0000"/>
</svg>
